<svg id="Layer_1" data-name="Layer 1" xmlns="http://www.w3.org/2000/svg" viewBox="0 0 512 512"><defs><style>.cls-1,.cls-2,.cls-3{fill:none;stroke:#0075b2;stroke-miterlimit:10;}.cls-1{stroke-width:34.75px;}.cls-2{stroke-width:26.06px;}.cls-3{stroke-width:17.37px;}</style></defs><path class="cls-1" d="M135.36,316.54l-23.94.24a58.18,58.18,0,0,1-34.71-13.32,59.74,59.74,0,0,1-19.15-30.25c-.52-2-7.19-30,11.73-52.53a58.8,58.8,0,0,1,31.6-19.13l30.64.25a99.25,99.25,0,0,1,10.53-43.33c18.89-37.18,55.73-48.74,65.12-51.32a104,104,0,0,1,47.4-1.94c41.89,8.66,64,42.45,68.71,50.11l21.54.73a64.24,64.24,0,0,1,28.73,12.1,66.27,66.27,0,0,1,23,32.68h15.8a65.8,65.8,0,0,1,23,14.28c4.78,4.6,23.34,23.88,20.34,50.35-2.51,22.18-19.25,41.4-42.37,48.9l-38.78.48"/><path class="cls-2" d="M247.89,238.19a73.85,73.85,0,0,0-36,9.34c-24.24,13.75-38.92,41.33-38.64,68.56.41,38.71,31,73.6,68.54,78.64a75.81,75.81,0,0,0,65.61-24.09c20-22.07,20.07-48.61,19.93-54.55"/><path class="cls-2" d="M282.89,242.37a79.66,79.66,0,0,1,22.84,15.48,80.74,80.74,0,0,1,17.5,25.07"/><polygon class="cls-3" points="276.06 318.74 232.64 293.39 232.64 344.09 276.06 318.74"/></svg>